<svg width="500" height="500" xmlns="http://www.w3.org/2000/svg">
 <g>
  <title>Layer 1</title>
  <path fill="url(#svg_5)" stroke="#000" opacity="NaN" d="m122,58l220,1l1,317l-221,57l0,-375z" id="svg_3" stroke-width="5"/>
  <path fill-opacity="0.56" id="svg_15" d="m123,58l132.59203,328l192.40798,-76.02649l-105.67485,-251.97351l-219.32516,0z" opacity="NaN" stroke="#000" fill="url(#svg_17)" stroke-width="5"/>
  <text transform="matrix(4.97898, 0, 0, 4.97898, -1412.54, -1365.11)" xml:space="preserve" text-anchor="start" font-family="Noto Sans JP" font-size="24" stroke-width="0" id="svg_20" y="365.57719" x="356.80761" stroke="#000" fill="#000000">2</text>
  <line fill="none" stroke-width="5" stroke="#000" x1="150" y1="373" x2="318" y2="342" id="svg_1"/>
  <line fill="none" stroke-width="5" stroke="#000" x1="150" y1="329" x2="319" y2="310" id="svg_2"/>
  <line fill="none" stroke-width="5" stroke="#000" x1="152" y1="286" x2="317" y2="275" id="svg_4"/>
  <line fill="none" stroke-width="5" stroke="#000" x1="150.00001" y1="246" x2="322" y2="239" id="svg_6"/>
  <line fill="none" stroke-width="5" stroke="#000" x1="151.99999" y1="204" x2="318" y2="204" id="svg_7"/>
  <line fill="none" stroke-width="5" stroke="#000" x1="148" y1="161" x2="313" y2="159" id="svg_8"/>
  <line fill="none" stroke-width="5" stroke="#000" x1="147" y1="125" x2="312.01212" y2="125" id="svg_10"/>
  <path id="svg_12" d="m148,94l167.00299,0" opacity="undefined" stroke-width="5" stroke="#000" fill="none"/>
 </g>
 <defs>
  <linearGradient y2="0" x2="1" y1="0" x1="0" id="svg_5">
   <stop offset="0" stop-opacity="0.99609" stop-color="#ffffff"/>
   <stop offset="1" stop-opacity="0.99609" stop-color="#28e9ff"/>
  </linearGradient>
  <linearGradient y2="1" x2="0.66016" y1="0" x1="0" id="svg_17">
   <stop offset="0" stop-opacity="0.99219" stop-color="#6debff"/>
   <stop offset="1" stop-opacity="0.99219" stop-color="#0079d6"/>
   <stop offset="NaN" stop-opacity="0" stop-color="0"/>
   <stop offset="NaN" stop-opacity="0" stop-color="0"/>
  </linearGradient>
 </defs>
</svg>
