<svg width="500" height="500" xmlns="http://www.w3.org/2000/svg">
 <g>
  <title>Layer 1</title>
  <path id="svg_3" d="m122,58l220,1l1,317l-221,57l0,-375z" opacity="NaN" stroke="#000" fill="url(#svg_5)"/>
  <path fill="url(#svg_17)" stroke="#000" opacity="NaN" d="m123,58l132.59203,328l192.40798,-76.02649l-105.67485,-251.97351l-219.32516,0z" id="svg_15" fill-opacity="0.56"/>
  <text fill="#000000" stroke="#000" x="356.80761" y="365.57719" id="svg_20" stroke-width="0" font-size="24" font-family="Noto Sans JP" text-anchor="start" xml:space="preserve" transform="matrix(4.97898, 0, 0, 4.97898, -1412.54, -1365.11)">2</text>
  <line id="svg_1" y2="342" x2="318" y1="373" x1="154" stroke="#000" fill="none"/>
  <line id="svg_2" y2="310" x2="319" y1="329" x1="150" stroke="#000" fill="none"/>
  <line id="svg_4" y2="275" x2="317" y1="286" x1="152" stroke="#000" fill="none"/>
  <line id="svg_6" y2="239" x2="322" y1="246" x1="157" stroke="#000" fill="none"/>
  <line id="svg_7" y2="204" x2="318" y1="204" x1="160" stroke="#000" fill="none"/>
  <line id="svg_8" y2="159" x2="313" y1="161" x1="148" stroke="#000" fill="none"/>
  <line id="svg_10" y2="125" x2="312.01212" y1="125" x1="147" stroke="#000" fill="none"/>
  <line id="svg_12" y2="94" x2="310.00299" y1="94" x1="143" stroke="#000" fill="none"/>
 </g>
 <defs>
  <linearGradient id="svg_5" x1="0" y1="0" x2="1" y2="0">
   <stop stop-color="#ffffff" stop-opacity="0.99609" offset="0"/>
   <stop stop-color="#28e9ff" stop-opacity="0.99609" offset="1"/>
  </linearGradient>
  <linearGradient id="svg_17" x1="0" y1="0" x2="0.66016" y2="1">
   <stop stop-color="#6debff" stop-opacity="0.99219" offset="0"/>
   <stop stop-color="#0079d6" stop-opacity="0.99219" offset="1"/>
   <stop stop-color="0" stop-opacity="0" offset="NaN"/>
   <stop stop-color="0" stop-opacity="0" offset="NaN"/>
  </linearGradient>
 </defs>
</svg>
