<svg xmlns="http://www.w3.org/2000/svg" xmlns:xlink="http://www.w3.org/1999/xlink" width="64px" height="64px" viewBox="0 0 262 36" version="1.1">
    <title>distribution_logo</title>
    <g id="distribution_logo" stroke="none" stroke-width="1" fill="none" fill-rule="evenodd">
        <g id="编组-2备份" transform="scale(4) translate(0, -10)" fill="#0080FF">
            <g id="编组">
                
                <g>
                    <path d="M17.9573619,0 L17.9573619,24.0110883 C17.9573619,25.0542499 17.1079687,25.8998031 16.0605344,25.8998031 L1.89682754,25.8998031 C0.849393197,25.8998031 0,25.0542499 0,24.0110883 L0,0 L4.20442102,0 L4.20442102,20.6356247 C4.20442102,21.2306992 4.68860526,21.7129083 5.28574073,21.7129083 L12.6716212,21.7129083 C13.2691332,21.7129083 13.7533174,21.2306992 13.7533174,20.6356247 L13.7533174,0 L17.9573619,0 Z" id="Fill-2"/>
                    <path d="M26.744327,21.7129083 L34.1554333,21.7129083 C34.7529452,21.7129083 35.2371295,21.2306992 35.2371295,20.6356247 L35.2371295,5.26417848 C35.2371295,4.66910396 34.7529452,4.18689486 34.1554333,4.18689486 L26.744327,4.18689486 C26.146815,4.18689486 25.6626308,4.66910396 25.6626308,5.26417848 L25.6626308,20.6356247 C25.6626308,21.2306992 26.146815,21.7129083 26.744327,21.7129083 M39.4415505,1.88908976 L39.4415505,24.0110883 C39.4415505,25.0542499 38.5925338,25.8998031 37.5450995,25.8998031 L23.3550373,25.8998031 C22.307603,25.8998031 21.4585863,25.0542499 21.4585863,24.0110883 L21.4585863,1.88908976 C21.4585863,0.845553279 22.307603,0 23.3550373,0 L37.5450995,0 C38.5925338,0 39.4415505,0.845553279 39.4415505,1.88908976" id="Fill-4"/>
                    <path d="M60.9329679,12.5975065 L60.9329679,24.0111633 C60.9329679,25.0543249 60.0839512,25.8998781 59.0361404,25.8998781 L42.9500037,25.8998781 L42.9500037,21.7129833 L55.629155,21.7129833 C56.2262905,21.7129833 56.7108512,21.2307742 56.7108512,20.6356997 L56.7289234,15.9729701 C56.7289234,15.3782706 56.2443627,14.8960615 55.6472272,14.8960615 L44.8453253,14.8960615 C43.7978909,14.8960615 42.930802,14.0501332 42.930802,13.0069717 L42.930802,1.88878979 C42.930802,0.845628273 43.7798187,7.49936389e-05 44.8272531,7.49936389e-05 L60.9329679,7.49936389e-05 L60.9329679,4.18696986 L48.2165428,4.18696986 C47.6194073,4.18696986 47.1348465,4.66917895 47.1348465,5.26425348 L47.1348465,9.63113307 C47.1348465,10.2262076 47.6194073,10.7084167 48.2165428,10.7084167 L59.0361404,10.7084167 C60.0839512,10.7084167 60.9329679,11.5543449 60.9329679,12.5975065" id="Fill-6"/>
                </g>
            </g>
            
        </g>
    </g>
</svg>
